<svg width="56" height="56" viewBox="0 0 56 56" fill="none" xmlns="http://www.w3.org/2000/svg">
<circle cx="28" cy="28" r="22" fill="white"/>
<path d="M17 15L19.2768 42L29.5 45L39.7196 42.0019L42 15H17Z" fill="#2196F3"/>
<path d="M37.1321 23.8294L36.8446 27.2213L35.9768 37.3894L29.5 39.27L29.4946 39.2719L23.0214 37.3894L22.5696 32.0719H25.7411L25.9768 34.83L29.4964 35.8275L29.4982 35.8256L33.0232 34.8281L33.5036 30.2325L22.4178 30.2644L22.1036 27.1219L33.7696 26.9775L34.0053 23.6138L21.7911 23.6494L21.5857 20.52H29.5H37.4143L37.1321 23.8294Z" fill="#FAFAFA"/>
<path d="M28 0C22.6557 -6.37297e-08 17.4231 1.52945 12.9201 4.40769C8.41713 7.28594 4.8319 11.3928 2.5879 16.2431C0.343897 21.0934 -0.46515 26.4846 0.256317 31.78C0.977785 37.0753 3.19963 42.0536 6.65942 46.1268C10.1192 50.2 14.6724 53.198 19.7813 54.7666C24.8902 56.3353 30.3412 56.4091 35.4907 54.9794C40.6402 53.5497 45.2729 50.6761 48.8418 46.6981C52.4106 42.7201 54.7665 37.8039 55.6311 32.53L51.4027 31.8368C50.6704 36.3036 48.675 40.4675 45.6523 43.8367C42.6296 47.206 38.7058 49.6398 34.3444 50.8507C29.983 52.0616 25.3661 51.9991 21.039 50.6705C16.712 49.3419 12.8556 46.8027 9.92522 43.3528C6.99488 39.9029 5.11305 35.6865 4.50199 31.2015C3.89093 26.7165 4.57617 22.1503 6.47677 18.0423C8.37737 13.9342 11.4139 10.4559 15.2278 8.01808C19.0417 5.58029 23.4736 4.2849 28 4.2849V0Z" fill="#F2C216"/>
</svg>
