<svg width="27" height="31" viewBox="0 0 27 31" fill="none" xmlns="http://www.w3.org/2000/svg">
<path d="M11.2999 13.0031C10.5776 13.0014 10.0057 13.684 10.0037 14.5184C10.0017 15.3528 10.583 16.0382 11.2927 16.0399C12.0151 16.0416 12.587 15.359 12.5889 14.5246C12.6036 13.6901 12.0223 13.0048 11.2999 13.0031ZM15.9255 13.0141C15.2031 13.0124 14.6312 13.695 14.6293 14.5294C14.6273 15.3639 15.2086 16.0492 15.9183 16.0509C16.6406 16.0526 17.2125 15.37 17.2145 14.5356C17.2165 13.7011 16.6478 13.0158 15.9255 13.0141Z" fill="white"/>
<path d="M23.8486 0.989633L3.24865 0.92176C1.51149 0.916037 0.0927057 2.26571 0.0871764 3.94391L0.0216005 23.8467C0.0160712 25.5249 1.42593 26.8839 3.16309 26.8897L20.5962 26.9471L19.7904 24.221L21.7523 25.9793L23.6071 27.6342L26.9031 30.4421L26.9901 4.03255C26.9956 2.35435 25.5857 0.995357 23.8486 0.989633ZM17.8512 20.1958C17.8512 20.1958 17.2999 19.5609 16.8405 19C18.8562 18.462 19.6288 17.2574 19.6288 17.2574C18.9972 17.6528 18.3968 17.9305 17.8581 18.1201C17.0884 18.4267 16.3498 18.6304 15.6269 18.7457C14.1502 19.0059 12.7976 18.9278 11.6453 18.7179C10.7696 18.5531 10.0171 18.3151 9.38755 18.0775C9.0344 17.9438 8.65061 17.7806 8.26696 17.5732C8.22094 17.5436 8.17487 17.5288 8.12884 17.4992C8.09815 17.4844 8.08282 17.4696 8.0675 17.4548C7.79127 17.3067 7.63788 17.2031 7.63788 17.2031C7.63788 17.2031 8.3719 18.3833 10.3224 18.9491C9.85941 19.507 9.28842 20.1675 9.28842 20.1675C5.89131 20.0533 4.607 17.9145 4.607 17.9145C4.62262 13.1743 6.849 9.33942 6.849 9.33942C9.06796 7.75685 11.1739 7.80795 11.1739 7.80795L11.3271 7.98511C8.5574 8.74148 7.27761 9.90024 7.27761 9.90024C7.27761 9.90024 7.6164 9.7247 8.18602 9.47632C9.83322 8.78985 11.1406 8.60278 11.6788 8.56039C11.7711 8.54598 11.848 8.53151 11.9402 8.53181C12.8784 8.41713 13.9392 8.39119 15.0457 8.5126C16.5056 8.67934 18.0723 9.0967 19.6683 9.94107C19.6683 9.94107 18.4575 8.83299 15.8466 8.05888L16.0626 7.82405C16.0626 7.82405 18.1688 7.78683 20.3773 9.384C20.3773 9.384 22.5784 13.2335 22.5628 17.9737C22.5628 17.9737 21.249 20.1039 17.8512 20.1958Z" fill="white"/>
</svg>
