<svg width="56" height="56" viewBox="0 0 56 56" fill="none" xmlns="http://www.w3.org/2000/svg">
<circle cx="28" cy="28" r="22" fill="white"/>
<g clip-path="url(#clip0_288_138)">
<path d="M23.001 45C25.7604 45 28 42.76 28 40V35H23.001C20.2415 35 18.002 37.24 18.002 40C18.002 42.76 20.2415 45 23.001 45Z" fill="#0ACF83"/>
<path d="M18.002 30C18.002 27.24 20.2415 25 23.001 25H28V35H23.001C20.2415 35 18.002 32.76 18.002 30Z" fill="#A259FF"/>
<path d="M18.01 20C18.01 17.24 20.2496 15 23.009 15H28.008V25H23.009C20.2496 25 18.01 22.76 18.01 20Z" fill="#F24E1E"/>
<path d="M28 15H32.999C35.7584 15 37.998 17.24 37.998 20C37.998 22.76 35.7584 25 32.999 25H28V15Z" fill="#FF7262"/>
<path d="M37.998 30C37.998 32.76 35.7584 35 32.999 35C30.2396 35 28 32.76 28 30C28 27.24 30.2396 25 32.999 25C35.7584 25 37.998 27.24 37.998 30Z" fill="#1ABCFE"/>
</g>
<path d="M28 0C24.323 -4.38479e-08 20.682 0.724241 17.2849 2.13137C13.8877 3.5385 10.8011 5.60097 8.20101 8.20101C5.60097 10.8011 3.5385 13.8877 2.13137 17.2849C0.724241 20.682 -1.16879e-07 24.323 0 28C1.16879e-07 31.677 0.724242 35.318 2.13137 38.7151C3.53851 42.1123 5.60097 45.199 8.20101 47.799C10.8011 50.399 13.8877 52.4615 17.2849 53.8686C20.682 55.2758 24.323 56 28 56L28 51.7151C24.8857 51.7151 21.8019 51.1017 18.9246 49.9099C16.0474 48.7181 13.433 46.9713 11.2309 44.7691C9.02874 42.567 7.2819 39.9526 6.09011 37.0754C4.89831 34.1981 4.2849 31.1143 4.2849 28C4.2849 24.8857 4.89831 21.8019 6.0901 18.9246C7.2819 16.0474 9.02874 13.433 11.2309 11.2309C13.433 9.02874 16.0474 7.2819 18.9246 6.09011C21.8019 4.89831 24.8857 4.2849 28 4.2849L28 0Z" fill="#F2C216"/>
<defs>
<clipPath id="clip0_288_138">
<rect width="20" height="30" fill="white" transform="translate(18 15)"/>
</clipPath>
</defs>
</svg>
