<svg width="56" height="56" viewBox="0 0 56 56" fill="none" xmlns="http://www.w3.org/2000/svg">
<circle cx="28" cy="28" r="22" fill="white"/>
<path d="M43.4963 26.65L29.434 13.4155C28.6243 12.6532 27.3109 12.6532 26.5005 13.4155L23.5807 16.1642L27.2846 19.6503C28.1455 19.3765 29.1325 19.5602 29.8185 20.2061C30.5087 20.856 30.7022 21.7929 30.4039 22.6061L33.9742 25.9661C34.8382 25.6857 35.8344 25.8672 36.5242 26.5174C37.4881 27.4246 37.4881 28.8946 36.5242 29.8025C35.5596 30.7101 33.9977 30.7101 33.0327 29.8025C32.3079 29.1196 32.1284 28.1167 32.4961 27.2762L29.1662 24.1425V32.3889C29.401 32.4984 29.6229 32.6442 29.8185 32.8283C30.7824 33.7355 30.7824 35.2056 29.8185 36.1138C28.8546 37.0207 27.2916 37.0207 26.3284 36.1138C25.3645 35.2052 25.3645 33.7352 26.3284 32.8283C26.5668 32.6043 26.8426 32.4348 27.1371 32.3213V23.998C26.8426 23.8845 26.5675 23.7166 26.3284 23.4909C25.5983 22.8041 25.4227 21.7953 25.797 20.9514L22.1457 17.5142L12.503 26.5887C11.693 27.3517 11.693 28.5878 12.503 29.3502L26.5661 42.585C27.3758 43.3474 28.6888 43.3474 29.4995 42.585L43.4963 29.4116C44.3064 28.6492 44.3064 27.4124 43.4963 26.65Z" fill="#F05133"/>
<path d="M28 0C23.2421 -5.6737e-08 18.5627 1.2124 14.4035 3.52277C10.2442 5.83315 6.74228 9.16528 4.2282 13.2047C1.71412 17.2441 0.270832 21.8575 0.0345491 26.6095C-0.201734 31.3615 0.776786 36.0953 2.87775 40.3642C4.97872 44.633 8.13283 48.2961 12.0424 51.0077C15.9519 53.7193 20.488 55.3899 25.2224 55.8619C29.9568 56.3339 34.7334 55.5916 39.1013 53.7053C43.4692 51.8189 47.2845 48.8506 50.1868 45.0805L46.7915 42.4667C44.3333 45.6598 41.102 48.1738 37.4024 49.7715C33.7029 51.3692 29.6573 51.9979 25.6474 51.5981C21.6376 51.1984 17.7957 49.7834 14.4844 47.4868C11.1731 45.1902 8.50172 42.0876 6.72226 38.4721C4.94281 34.8565 4.11404 30.8471 4.31416 26.8223C4.51429 22.7975 5.73671 18.8901 7.86605 15.4688C9.99539 12.0476 12.9614 9.22539 16.4842 7.26858C20.0069 5.31177 23.9702 4.2849 28 4.2849L28 0Z" fill="#F2C216"/>
</svg>
