<svg width="56" height="56" viewBox="0 0 56 56" fill="none" xmlns="http://www.w3.org/2000/svg">
<circle cx="28" cy="28" r="22" fill="white"/>
<path d="M16 15L17.7573 41.256L28.5 45L39.2427 41.256L41 15H16Z" fill="#FF7816"/>
<path d="M36.3084 22.9688H24.0238L24.3221 27.3633H36.0101L35.2971 38.0038L28.5 40.4121L21.7028 38.0038L21.4708 34.4531H24.7865L24.8527 35.4199L28.5 36.703L32.1472 35.4199L32.4455 30.8789H21.2221L20.4595 19.4531H36.5404L36.3084 22.9688Z" fill="#ECECF1"/>
<path d="M28 0C22.1118 -7.02164e-08 16.3734 1.85629 11.6008 5.30495C6.82814 8.75361 3.26418 13.6191 1.41562 19.2096C-0.432944 24.8002 -0.472015 30.8312 1.30396 36.4452C3.07994 42.0592 6.58056 46.9705 11.3081 50.4807C16.0357 53.9909 21.7495 55.9214 27.6372 55.9977C33.525 56.0739 39.2869 54.2921 44.1038 50.9056C48.9207 47.5191 52.5474 42.7002 54.4683 37.1341C56.3891 31.5679 56.5063 25.5379 54.8032 19.9014L50.7015 21.1407C52.1439 25.9147 52.0447 31.0219 50.4178 35.7362C48.7909 40.4506 45.7192 44.532 41.6394 47.4003C37.5597 50.2686 32.6795 51.7777 27.6928 51.7131C22.706 51.6485 17.8666 50.0134 13.8625 47.0404C9.85842 44.0674 6.89351 39.9077 5.38931 35.1528C3.88512 30.3979 3.91821 25.2898 5.48388 20.5548C7.04955 15.8198 10.0681 11.6989 14.1104 8.77803C18.1526 5.85712 23.0129 4.2849 28 4.2849V0Z" fill="#F2C216"/>
</svg>
