<svg width="24" height="20" viewBox="0 0 24 20" fill="none" xmlns="http://www.w3.org/2000/svg">
<path d="M8.45954 18.1305C7.7309 18.1305 7.79714 17.867 7.59842 17.2082L5.47876 10.2907L21.7074 0.803955" fill="#C8DAEA"/>
<path d="M8.4458 18.6445C8.90948 18.6445 9.17443 18.381 9.50563 18.1175L12.4864 15.2846L8.777 13.0447" fill="white"/>
<path d="M9.35894 13.1897L18.3013 19.7119C19.2286 20.3048 20.0235 19.9754 20.2885 18.7896L23.9316 1.79244C24.2628 0.343073 23.3355 -0.315731 22.3419 0.145432L1.07901 8.3146C-0.312018 8.84164 -0.312018 9.69808 0.814053 10.0275L6.31193 11.7404L18.8974 3.76885C19.4936 3.43945 20.0235 3.57121 19.6261 4.03237" fill="white"/>
</svg>
