<svg width="56" height="56" viewBox="0 0 56 56" fill="none" xmlns="http://www.w3.org/2000/svg">
<circle cx="28" cy="28" r="22" fill="white"/>
<path d="M28 0C22.1589 -6.9655e-08 16.4639 1.82676 11.7127 5.2245C6.96144 8.62223 3.39175 13.4208 1.50345 18.9483C-0.384841 24.4758 -0.497186 30.4555 1.18215 36.05C2.86149 41.6446 6.24841 46.5738 10.8687 50.1476C15.489 53.7214 21.1112 55.7608 26.9483 55.9802C32.7853 56.1996 38.5448 54.5881 43.4203 51.3712C48.2958 48.1544 52.0433 43.4932 54.1378 38.0406C56.2324 32.5879 56.5693 26.6167 55.1013 20.963L50.9539 22.0399C52.1973 26.8284 51.912 31.8858 50.1379 36.504C48.3639 41.1223 45.1899 45.0701 41.0605 47.7947C36.9311 50.5193 32.053 51.8842 27.1092 51.6984C22.1654 51.5125 17.4036 49.7852 13.4903 46.7583C9.5771 43.7314 6.70849 39.5565 5.28614 34.8181C3.8638 30.0797 3.95895 25.0151 5.55828 20.3335C7.1576 15.6519 10.181 11.5877 14.2052 8.70988C18.2293 5.83211 23.0527 4.2849 28 4.2849V0Z" fill="#F2C216"/>
<g filter="url(#filter0_b_388_11)">
<path d="M41.01 17.0299L35.244 14.2539C34.9184 14.0969 34.552 14.0451 34.1956 14.1057C33.8392 14.1662 33.5105 14.3362 33.255 14.5919L14.38 31.7999C14.151 32.0077 14.0139 32.298 13.9989 32.6069C13.9839 32.9157 14.0922 33.2179 14.3 33.4469C14.325 33.4739 14.35 33.4999 14.377 33.5239L15.918 34.9239C16.1194 35.1072 16.3786 35.2141 16.6506 35.2262C16.9226 35.2383 17.1902 35.1547 17.407 34.9899L40.142 17.7499C40.3138 17.6196 40.5184 17.5398 40.7331 17.5195C40.9477 17.4993 41.1637 17.5393 41.3568 17.6351C41.5499 17.7309 41.7124 17.8787 41.826 18.0619C41.9397 18.2451 41.9999 18.4564 42 18.6719V18.6049C42 18.2758 41.9071 17.9534 41.7319 17.6748C41.5568 17.3962 41.3066 17.1726 41.01 17.0299Z" fill="#0065A9"/>
</g>
<g filter="url(#filter1_b_388_11)">
<path d="M41.01 38.9699L35.244 41.7469C34.9183 41.9035 34.552 41.955 34.1957 41.8945C33.8394 41.8339 33.5107 41.6643 33.255 41.4089L14.38 24.1999C14.151 23.9921 14.0139 23.7018 13.9989 23.393C13.9839 23.0841 14.0922 22.7819 14.3 22.5529C14.325 22.5259 14.35 22.4999 14.377 22.4759L15.918 21.0759C16.1196 20.8919 16.3794 20.7844 16.6521 20.7724C16.9247 20.7603 17.193 20.8444 17.41 21.0099L40.142 38.2499C40.3138 38.3802 40.5184 38.46 40.7331 38.4803C40.9477 38.5006 41.1637 38.4606 41.3568 38.3647C41.5499 38.2689 41.7124 38.1211 41.826 37.9379C41.9397 37.7547 41.9999 37.5435 42 37.3279V37.3999C41.999 37.7281 41.9055 38.0494 41.7305 38.3271C41.5554 38.6047 41.3057 38.8275 41.01 38.9699Z" fill="#007ACC"/>
</g>
<g filter="url(#filter2_b_388_11)">
<path d="M35.244 41.7469C34.9183 41.9035 34.552 41.9551 34.1957 41.8945C33.8394 41.834 33.5107 41.6643 33.255 41.4089C33.3986 41.5507 33.5808 41.6469 33.7789 41.6855C33.9769 41.7241 34.1819 41.7034 34.3683 41.626C34.5546 41.5486 34.7139 41.4179 34.8263 41.2503C34.9387 41.0827 34.9991 40.8857 35 40.6839V15.3159C35.0001 15.1132 34.9401 14.915 34.8276 14.7464C34.715 14.5779 34.5549 14.4465 34.3676 14.369C34.1803 14.2914 33.9742 14.2712 33.7755 14.3109C33.5767 14.3506 33.3941 14.4484 33.251 14.5919C33.5065 14.3363 33.8352 14.1663 34.1915 14.1056C34.5478 14.0449 34.9142 14.0964 35.24 14.2529L41.005 17.0249C41.3025 17.1669 41.5537 17.3902 41.7298 17.6688C41.9058 17.9475 41.9995 18.2703 42 18.5999V37.3999C42.0001 37.7293 41.9071 38.052 41.7317 38.3308C41.5564 38.6097 41.3059 38.8333 41.009 38.9759L35.244 41.7469Z" fill="#1F9CF0"/>
</g>
<defs>
<filter id="filter0_b_388_11" x="9.99756" y="10.0811" width="36.0024" height="29.1462" filterUnits="userSpaceOnUse" color-interpolation-filters="sRGB">
<feFlood flood-opacity="0" result="BackgroundImageFix"/>
<feGaussianBlur in="BackgroundImage" stdDeviation="2"/>
<feComposite in2="SourceAlpha" operator="in" result="effect1_backgroundBlur_388_11"/>
<feBlend mode="normal" in="SourceGraphic" in2="effect1_backgroundBlur_388_11" result="shape"/>
</filter>
<filter id="filter1_b_388_11" x="9.99756" y="16.7712" width="36.0024" height="29.1479" filterUnits="userSpaceOnUse" color-interpolation-filters="sRGB">
<feFlood flood-opacity="0" result="BackgroundImageFix"/>
<feGaussianBlur in="BackgroundImage" stdDeviation="2"/>
<feComposite in2="SourceAlpha" operator="in" result="effect1_backgroundBlur_388_11"/>
<feBlend mode="normal" in="SourceGraphic" in2="effect1_backgroundBlur_388_11" result="shape"/>
</filter>
<filter id="filter2_b_388_11" x="29.251" y="10.0808" width="16.749" height="35.8384" filterUnits="userSpaceOnUse" color-interpolation-filters="sRGB">
<feFlood flood-opacity="0" result="BackgroundImageFix"/>
<feGaussianBlur in="BackgroundImage" stdDeviation="2"/>
<feComposite in2="SourceAlpha" operator="in" result="effect1_backgroundBlur_388_11"/>
<feBlend mode="normal" in="SourceGraphic" in2="effect1_backgroundBlur_388_11" result="shape"/>
</filter>
</defs>
</svg>
